# Blender v2.79 (sub 0) OBJ File: ''
# www.blender.org
mtllib humanScale.mtl
o Cube
v 0.254551 0.033585 -0.254551
v 0.254551 0.033585 0.254551
v -0.254551 0.033585 0.254551
v -0.254551 0.033585 -0.254552
v 0.308887 1.522720 -0.308887
v 0.308887 1.522720 0.308887
v -0.308887 1.522720 0.308887
v -0.308887 1.522720 -0.308887
v -0.020330 1.739898 -0.188072
v -0.020330 1.931483 0.003513
v 0.031513 1.916900 -0.048329
v 0.075463 1.875369 -0.092279
v 0.104830 1.813215 -0.121646
v 0.115142 1.739898 -0.131958
v 0.104830 1.666582 -0.121646
v 0.075463 1.604427 -0.092279
v 0.031513 1.562896 -0.048329
v 0.052987 1.916900 0.003513
v 0.115142 1.875369 0.003513
v 0.156672 1.813215 0.003513
v 0.171256 1.739898 0.003513
v 0.156672 1.666582 0.003513
v 0.115142 1.604427 0.003513
v 0.052987 1.562896 0.003513
v -0.020330 1.548313 0.003513
v 0.031513 1.916900 0.055356
v 0.075463 1.875369 0.099306
v 0.104830 1.813215 0.128672
v 0.115142 1.739898 0.138984
v 0.104830 1.666582 0.128672
v 0.075463 1.604427 0.099306
v 0.031513 1.562896 0.055356
v -0.020330 1.916900 0.076830
v -0.020330 1.875369 0.138984
v -0.020330 1.813215 0.180515
v -0.020330 1.739898 0.195098
v -0.020330 1.666582 0.180515
v -0.020330 1.604427 0.138984
v -0.020330 1.562896 0.076830
v -0.072172 1.916900 0.055356
v -0.116122 1.875369 0.099306
v -0.145489 1.813215 0.128672
v -0.155801 1.739898 0.138984
v -0.145489 1.666582 0.128672
v -0.116122 1.604427 0.099306
v -0.072172 1.562896 0.055356
v -0.093646 1.916900 0.003513
v -0.155801 1.875369 0.003513
v -0.197331 1.813215 0.003513
v -0.211915 1.739898 0.003513
v -0.197331 1.666582 0.003513
v -0.155801 1.604427 0.003513
v -0.093646 1.562896 0.003513
v -0.072172 1.916900 -0.048329
v -0.116122 1.875369 -0.092279
v -0.145489 1.813215 -0.121646
v -0.155801 1.739898 -0.131958
v -0.145489 1.666582 -0.121646
v -0.116122 1.604427 -0.092279
v -0.072172 1.562896 -0.048329
v -0.020330 1.916900 -0.069803
v -0.020330 1.875369 -0.131958
v -0.020330 1.813215 -0.173488
v -0.020330 1.666582 -0.173488
v -0.020330 1.604427 -0.131958
v -0.020330 1.562896 -0.069803
vn 0.0000 -1.0000 -0.0000
vn 0.0000 1.0000 0.0000
vn 0.9993 -0.0365 0.0000
vn -0.0000 -0.0365 0.9993
vn -0.9993 -0.0365 -0.0000
vn 0.0000 -0.0365 -0.9993
vn 0.3764 -0.1807 -0.9087
vn 0.3256 0.5253 -0.7862
vn 0.0805 0.9776 -0.1945
vn 0.0805 -0.9776 -0.1945
vn 0.3256 -0.5253 -0.7862
vn 0.3764 0.1807 -0.9087
vn 0.2243 0.8103 -0.5414
vn 0.2243 -0.8103 -0.5414
vn 0.1945 -0.9776 -0.0806
vn 0.7862 -0.5253 -0.3256
vn 0.9087 0.1807 -0.3764
vn 0.5414 0.8103 -0.2243
vn 0.5414 -0.8103 -0.2243
vn 0.9087 -0.1807 -0.3764
vn 0.7862 0.5253 -0.3256
vn 0.1945 0.9776 -0.0805
vn 0.5414 0.8103 0.2243
vn 0.5414 -0.8103 0.2243
vn 0.9087 -0.1807 0.3764
vn 0.7862 0.5253 0.3256
vn 0.1945 0.9776 0.0805
vn 0.1945 -0.9776 0.0806
vn 0.7862 -0.5253 0.3256
vn 0.9087 0.1807 0.3764
vn 0.2243 -0.8103 0.5414
vn 0.3764 -0.1807 0.9087
vn 0.3256 0.5253 0.7862
vn 0.0805 0.9776 0.1945
vn 0.0805 -0.9776 0.1945
vn 0.3256 -0.5253 0.7862
vn 0.3764 0.1807 0.9087
vn 0.2243 0.8103 0.5414
vn -0.0805 0.9776 0.1945
vn -0.0805 -0.9776 0.1945
vn -0.3256 -0.5253 0.7861
vn -0.3764 0.1807 0.9087
vn -0.2243 0.8103 0.5414
vn -0.2243 -0.8103 0.5414
vn -0.3764 -0.1807 0.9087
vn -0.3256 0.5253 0.7862
vn -0.7862 -0.5253 0.3256
vn -0.9087 0.1807 0.3764
vn -0.5414 0.8103 0.2243
vn -0.5414 -0.8103 0.2243
vn -0.9087 -0.1807 0.3764
vn -0.7862 0.5253 0.3256
vn -0.1945 0.9776 0.0805
vn -0.1945 -0.9776 0.0805
vn -0.5414 -0.8103 -0.2243
vn -0.9087 -0.1807 -0.3764
vn -0.7862 0.5253 -0.3256
vn -0.1945 0.9776 -0.0805
vn -0.1945 -0.9776 -0.0805
vn -0.7862 -0.5253 -0.3256
vn -0.9087 0.1807 -0.3764
vn -0.5414 0.8103 -0.2243
vn -0.3764 -0.1807 -0.9087
vn -0.3256 0.5253 -0.7862
vn -0.0805 0.9776 -0.1945
vn -0.0805 -0.9776 -0.1945
vn -0.3256 -0.5253 -0.7862
vn -0.3764 0.1807 -0.9087
vn -0.2243 0.8103 -0.5414
vn -0.2243 -0.8103 -0.5414
usemtl Material
s off
f 1//1 2//1 3//1 4//1
f 5//2 8//2 7//2 6//2
f 1//3 5//3 6//3 2//3
f 2//4 6//4 7//4 3//4
f 3//5 7//5 8//5 4//5
f 5//6 1//6 4//6 8//6
f 64//7 9//7 14//7 15//7
f 63//8 62//8 12//8 13//8
f 61//9 10//9 11//9
f 25//10 66//10 17//10
f 65//11 64//11 15//11 16//11
f 9//12 63//12 13//12 14//12
f 62//13 61//13 11//13 12//13
f 66//14 65//14 16//14 17//14
f 25//15 17//15 24//15
f 16//16 15//16 22//16 23//16
f 14//17 13//17 20//17 21//17
f 12//18 11//18 18//18 19//18
f 17//19 16//19 23//19 24//19
f 15//20 14//20 21//20 22//20
f 13//21 12//21 19//21 20//21
f 11//22 10//22 18//22
f 19//23 18//23 26//23 27//23
f 24//24 23//24 31//24 32//24
f 22//25 21//25 29//25 30//25
f 20//26 19//26 27//26 28//26
f 18//27 10//27 26//27
f 25//28 24//28 32//28
f 23//29 22//29 30//29 31//29
f 21//30 20//30 28//30 29//30
f 32//31 31//31 38//31 39//31
f 30//32 29//32 36//32 37//32
f 28//33 27//33 34//33 35//33
f 26//34 10//34 33//34
f 25//35 32//35 39//35
f 31//36 30//36 37//36 38//36
f 29//37 28//37 35//37 36//37
f 27//38 26//38 33//38 34//38
f 33//39 10//39 40//39
f 25//40 39//40 46//40
f 38//41 37//41 44//41 45//41
f 36//42 35//42 42//42 43//42
f 34//43 33//43 40//43 41//43
f 39//44 38//44 45//44 46//44
f 37//45 36//45 43//45 44//45
f 35//46 34//46 41//46 42//46
f 45//47 44//47 51//47 52//47
f 43//48 42//48 49//48 50//48
f 41//49 40//49 47//49 48//49
f 46//50 45//50 52//50 53//50
f 44//51 43//51 50//51 51//51
f 42//52 41//52 48//52 49//52
f 40//53 10//53 47//53
f 25//54 46//54 53//54
f 53//55 52//55 59//55 60//55
f 51//56 50//56 57//56 58//56
f 49//57 48//57 55//57 56//57
f 47//58 10//58 54//58
f 25//59 53//59 60//59
f 52//60 51//60 58//60 59//60
f 50//61 49//61 56//61 57//61
f 48//62 47//62 54//62 55//62
f 58//63 57//63 9//63 64//63
f 56//64 55//64 62//64 63//64
f 54//65 10//65 61//65
f 25//66 60//66 66//66
f 59//67 58//67 64//67 65//67
f 57//68 56//68 63//68 9//68
f 55//69 54//69 61//69 62//69
f 60//70 59//70 65//70 66//70
